<svg height="1em" style="flex:none;line-height:1" viewBox="0 0 24 24" xmlns="http://www.w3.org/2000/svg"><title>DeepL</title><path d="M11.563 0c.24 0 .475.065.682.187l8.197 4.756a1.383 1.383 0 01.683 1.197v9.528c0 .495-.26.949-.683 1.196l-4.79 2.78.01-.002-.155.087-.23.133a.69.69 0 00-.3.563v.386l-.16-.683-2.572 1.493a1.35 1.35 0 01-1.366 0l-8.195-4.757A1.384 1.384 0 012 15.668V6.14c0-.482.26-.936.684-1.183l8.195-4.77c.207-.122.443-.187.684-.187zm-1.27 14.023a1.405 1.405 0 00-2.038-.073 1.43 1.43 0 00.984 2.464c.368 0 .722-.144.985-.401a1.428 1.428 0 00.396-1.384l3.674-2.137-.683-.386-3.317 1.917zM9.24 6.164c-.368 0-.72.145-.983.402a1.43 1.43 0 00-.326 1.592c.075.177.187.338.326.47a1.405 1.405 0 002.021-.055l3.745 2.173.013-.009a1.427 1.427 0 00.368 1.48 1.403 1.403 0 001.967 0 1.428 1.428 0 000-2.063 1.403 1.403 0 00-1.986.02l-3.77-2.201a1.427 1.427 0 00-.39-1.407 1.405 1.405 0 00-.985-.402z" fill="#0F2B46"></path><path clip-rule="evenodd" d="M14.978 24v-3.959l-4.781 1.182" fill="#0F2B46" fill-rule="evenodd"></path></svg>