<svg width="156" height="32" viewBox="0 0 156 32" fill="none" xmlns="http://www.w3.org/2000/svg">
<path d="M50.7172 0H27.6622C26.3877 0 25.3586 1.03397 25.3586 2.30358V9.21911C25.3586 10.4935 24.3294 11.5227 23.055 11.5227H2.30357C1.02914 11.5227 0 12.5567 0 13.8263V23.0502C0 24.3246 1.03395 25.3538 2.30357 25.3538H25.3586C26.633 25.3538 27.6622 24.3198 27.6622 23.0502V16.1347C27.6622 14.8602 28.6913 13.8311 29.9657 13.8311H50.7172C51.9916 13.8311 53.0207 12.7971 53.0207 11.5275V2.30358C53.0207 1.02916 51.9868 0 50.7172 0Z" fill="#6E29F5"/>
<path d="M112.226 30.0237C112.226 28.4607 108.518 29.7592 108.518 27.143C108.518 25.7676 109.749 25.1328 110.851 25.1328C111.668 25.1328 112.361 25.3877 113.015 25.9311L112.51 26.7823C112.01 26.3062 111.476 26.0898 110.851 26.0898C110.283 26.0898 109.61 26.4024 109.61 27.1046C109.61 28.6675 113.318 27.3691 113.318 29.9852C113.318 31.3895 112.058 31.9954 110.879 31.9954C109.884 31.9954 108.956 31.6252 108.345 30.8461L108.874 29.9468C109.48 30.7066 110.124 31.0384 110.875 31.0384C111.509 31.0384 112.221 30.7451 112.221 30.0237H112.226Z" fill="black"/>
<path d="M114.669 24.998C115.02 24.998 115.285 25.2529 115.285 25.6136C115.285 25.9743 115.02 26.2292 114.669 26.2292C114.318 26.2292 114.053 25.9743 114.053 25.6136C114.053 25.2529 114.318 24.998 114.669 24.998ZM114.145 27.1429H115.188V31.8847H114.145V27.1429Z" fill="black"/>
<path d="M116.295 25.2432H117.338V31.8798H116.295V25.2432Z" fill="black"/>
<path d="M118.964 24.998C119.315 24.998 119.579 25.2529 119.579 25.6136C119.579 25.9743 119.315 26.2292 118.964 26.2292C118.613 26.2292 118.348 25.9743 118.348 25.6136C118.348 25.2529 118.613 24.998 118.964 24.998ZM118.444 27.1429H119.488V31.8847H118.444V27.1429Z" fill="black"/>
<path d="M120.31 29.5137C120.31 28.0709 121.383 27.0273 122.849 27.0273C123.667 27.0273 124.374 27.3784 124.812 27.9074L124.032 28.5422C123.778 28.22 123.35 27.994 122.845 27.994C121.984 27.994 121.344 28.6192 121.344 29.5137C121.344 30.4082 121.979 31.0333 122.845 31.0333C123.35 31.0333 123.773 30.8073 124.032 30.4851L124.812 31.1199C124.374 31.6489 123.662 32 122.849 32C121.378 32 120.31 30.9564 120.31 29.5137Z" fill="black"/>
<path d="M127.659 27.0273C129.101 27.0273 130.203 28.0805 130.203 29.5137C130.203 30.9468 129.101 32 127.659 32C126.216 32 125.119 30.9468 125.119 29.5137C125.119 28.0805 126.221 27.0273 127.659 27.0273ZM127.659 27.994C126.788 27.994 126.158 28.6576 126.158 29.5137C126.158 30.3697 126.783 31.0333 127.659 31.0333C128.534 31.0333 129.159 30.3697 129.159 29.5137C129.159 28.6576 128.534 27.994 127.659 27.994Z" fill="black"/>
<path d="M132.054 29.3309V31.8798H131.011V27.1379H132.054V27.8882C132.328 27.3207 132.934 27.0273 133.564 27.0273C134.637 27.0273 135.449 27.768 135.449 29.1626V31.8846H134.406V29.2011C134.406 28.4316 133.949 28.0132 133.285 28.0132C132.573 28.0132 132.054 28.4893 132.054 29.3309Z" fill="black"/>
<path d="M137.652 31.8847H136.56V25.248H140.778V26.2435H137.647V28.1383H140.436V29.1146H137.647V31.8847H137.652Z" fill="black"/>
<path d="M141.427 25.2432H142.471V31.8798H141.427V25.2432Z" fill="black"/>
<path d="M145.818 27.0273C147.261 27.0273 148.362 28.0805 148.362 29.5137C148.362 30.9468 147.261 32 145.818 32C144.375 32 143.279 30.9468 143.279 29.5137C143.279 28.0805 144.38 27.0273 145.818 27.0273ZM145.818 27.994C144.947 27.994 144.317 28.6576 144.317 29.5137C144.317 30.3697 144.943 31.0333 145.818 31.0333C146.693 31.0333 147.318 30.3697 147.318 29.5137C147.318 28.6576 146.693 27.994 145.818 27.994Z" fill="black"/>
<path d="M154.888 27.1431H155.907L154.614 31.8849H153.229L152.32 28.355L151.348 31.8849H149.963L148.718 27.1431H149.761L150.689 30.9279L151.719 27.1431H152.911L153.902 30.9279L154.883 27.1431H154.888Z" fill="black"/>
<path d="M108.436 17.3901C108.239 17.3084 103.608 15.3078 101.444 12.5858H94.9756C92.8163 15.3078 88.1803 17.3036 87.9832 17.3901L87.9014 17.4238L87.0117 15.3366L87.0935 15.303C87.2041 15.2549 89.7722 14.1392 91.7391 12.5858H87.6802V10.6285H91.9796V3.5302H88.9354V1.61616H91.9796V0.0195312H94.3601V1.61616H102.026V0.0195312H104.406V1.61616H107.398V3.5302H104.406V10.6285H108.653V12.5858H104.68C106.306 13.865 108.403 14.9134 109.312 15.303L109.393 15.3366L108.504 17.4238L108.422 17.3901H108.436ZM102.035 10.6285V9.50796H94.3697V10.6285H102.035ZM102.035 7.69972V6.57919H94.3697V7.69972H102.035ZM102.035 4.77095V3.5302H94.3697V4.77095H102.035Z" fill="black"/>
<path d="M88.2958 20.4537V18.5156H97.0773V16.9141H92.321V15.0289H97.0773V13.3169H99.4097V15.0289H104.108V16.9141H99.4097V18.5156H108.124V20.4537H88.2958Z" fill="black"/>
<path d="M65.6688 20.4533C65.1638 20.4533 64.7502 20.0397 64.7502 19.5348V12.826C64.4136 13.4272 64.0673 14.0139 63.7114 14.5814L63.6634 14.6535L61.6676 13.3695L61.7157 13.2973C64.2934 9.19994 65.4476 5.56904 65.914 3.7079H63.3652V1.43799H71.2907V3.7079H68.3378C68.1503 4.56874 67.7127 6.27117 66.8278 8.47856H69.8816C70.3865 8.47856 70.8001 8.89215 70.8001 9.39711V19.5348C70.8001 20.0397 70.3865 20.4533 69.8816 20.4533H65.6688ZM68.5302 18.1834V10.8543H67.1356V18.1834H68.5302Z" fill="black"/>
<path d="M71.6946 9.92154V7.52178H76.5759V4.98737H72.4881V2.71746H76.5759V0.0195312H79.0093V2.71746H83.1019V4.98737H79.0093V7.52178H83.8906V9.92154H71.6946Z" fill="black"/>
<path d="M71.6946 20.4533V18.0535H76.5759V15.1873H72.4881V12.9174H76.5759V10.5513H79.0093V12.9174H83.1019V15.1873H79.0093V18.0535H83.8906V20.4533H71.6946Z" fill="black"/>
<path d="M144.572 1.7749H136.661V4.05444H144.572V1.7749Z" fill="black"/>
<path d="M144.279 19.7322L144.341 19.6697C147.395 16.5774 148.477 10.8689 148.477 6.91583V6.18966H145.866V3.80913H148.477V0.0195312H150.858V3.80913H155.085C155.59 3.80913 156.004 4.22271 156.004 4.72767V17.4142C156.004 19.2176 154.537 20.6844 152.733 20.6844H150.714L149.949 18.4145H152.623C153.176 18.4145 153.628 17.9624 153.628 17.4094V6.18966H150.867V6.91583C150.867 11.5326 149.603 17.746 146.044 21.3432L145.981 21.4058L144.284 19.7322H144.279Z" fill="black"/>
<path d="M136.931 18.2652C136.426 18.2652 136.012 17.8516 136.012 17.3467V16.2791C136.012 16.1204 136.05 15.9713 136.127 15.8318C136.844 14.5333 137.965 11.9316 138.647 9.97909H135.68V7.68994H145.505V9.97909H141.163C140.624 11.6815 139.624 14.1679 138.739 15.9809H142.98L141.86 12.9223H144.356L145.448 15.8991C145.486 16.0001 145.505 16.1059 145.505 16.2165V17.3515C145.505 17.5968 145.409 17.8276 145.236 18.0007C145.063 18.1739 144.832 18.27 144.587 18.27H136.926L136.931 18.2652Z" fill="black"/>
<path d="M112.616 1.919L114.207 0.105957L117.54 3.00106L115.948 4.81411L112.616 1.919Z" fill="black"/>
<path d="M111.577 7.12276L113.145 5.31934L116.848 8.47894L115.28 10.2824L111.577 7.12276Z" fill="black"/>
<path d="M111.582 20.2083L111.625 20.1314C111.625 20.1314 112.909 17.8855 114.828 11.9607L114.857 11.8789L117.213 12.6099L117.184 12.6916C115.169 18.9147 113.837 21.2134 113.779 21.3096L113.736 21.3818L111.582 20.2035V20.2083Z" fill="black"/>
<path d="M116.357 19.6551L116.424 19.6022C118.997 17.6641 119.435 15.4855 119.435 11.3449V11.2583H121.705V11.3449C121.705 15.9616 121.08 18.9337 117.79 21.4152L117.723 21.4681L116.357 19.6551Z" fill="black"/>
<path d="M125.778 11.2583H123.508V20.6986H125.778V11.2583Z" fill="black"/>
<path d="M131.136 20.6843C129.332 20.6843 127.865 19.2175 127.865 17.4141V11.2632H130.135V17.4141C130.135 17.9671 130.587 18.4192 131.14 18.4192H133.896V20.6891H131.14L131.136 20.6843Z" fill="black"/>
<path d="M119.671 10.3014C119.166 10.3014 118.752 9.88781 118.752 9.38285V8.48354C118.752 8.23827 118.848 8.01225 119.021 7.83431C119.166 7.68523 119.315 7.53614 119.464 7.37744C120.392 6.39638 121.229 5.38646 121.835 4.51119H117.704V2.26533H123.96V0.0146484H126.451V2.26533H132.708V4.51119H124.576C124.061 5.49707 123.157 6.74744 122.008 8.05072H128.861C128.313 7.15141 127.837 6.26172 127.476 5.47302L127.418 5.35279H130.015L130.039 5.40089C130.409 6.15592 131.203 7.40149 131.53 7.90164C131.626 8.05072 131.674 8.22385 131.674 8.39698V9.38285C131.674 9.88781 131.261 10.3014 130.756 10.3014H119.68H119.671Z" fill="black"/>
</svg>
